<?xml version="1.0" encoding="utf-8"?>
<!-- Generator: Adobe Illustrator 18.0.0, SVG Export Plug-In . SVG Version: 6.00 Build 0)  -->
<!DOCTYPE svg PUBLIC "-//W3C//DTD SVG 1.1//EN" "http://www.w3.org/Graphics/SVG/1.1/DTD/svg11.dtd">
<svg version="1.1" id="Layer_1" xmlns="http://www.w3.org/2000/svg" xmlns:xlink="http://www.w3.org/1999/xlink" x="0px" y="0px"
	 width="80px" height="560px" viewBox="0 0 80 560" enable-background="new 0 0 80 560" xml:space="preserve">
<path fill="#5A6271" d="M27,13v-1.4c0-0.8-0.7-1.6-1.5-1.6h-13c-0.8,0-1.5,0.8-1.5,1.6v5c0,0.8,0.7,1.4,1.5,1.4h13
	c0.8,0,1.5-0.5,1.5-1.4V15h2v5H18v2.1V25h-1v5.6c0,0.8,0.7,1.4,1.5,1.4h1c0.8,0,1.5-0.5,1.5-1.4V25h-1v-3h9l0,0h2v-6.9V13H27z"/>
<g>
	<path fill="#5A6271" d="M27.5,55h-11c-0.8,0-1.5,0.7-1.5,1.5v11c0,0.8,0.7,1.5,1.5,1.5h11c0.8,0,1.5-0.7,1.5-1.5v-11
		C29,55.7,28.3,55,27.5,55z"/>
	<path fill="#5A6271" d="M25,51H12.5c-0.8,0-1.5,0.7-1.5,1.5V65h2V54.5c0-0.8,0.7-1.5,1.5-1.5H25V51z"/>
</g>
<g>
	<path fill="#5A6271" d="M13,107.7c0,1.3,0.9,2.3,2,2.3h10c1.1,0,2-1,2-2.3V97H13V107.7z"/>
	<polygon fill="#5A6271" points="23,92 23,90 17,90 17,92 11,92 11,95 29,95 29,92 	"/>
</g>
<g>
	<polygon fill="#5A6271" points="14.3,150 25.7,150 20,142.8 	"/>
	<polygon fill="#5A6271" points="25.7,130 14.3,130 20,137.2 	"/>
	<rect x="11" y="139" fill="#5A6271" width="18" height="2"/>
</g>
<g>
	<polygon fill="#5A6271" points="10,185.6 17.2,179.9 10,174.3 	"/>
	<polygon fill="#5A6271" points="22.8,179.9 30,185.6 30,174.3 	"/>
	<rect x="19" y="171" fill="#5A6271" width="2" height="18"/>
</g>
<path fill="none" stroke="#CA6964" stroke-width="2" stroke-miterlimit="10" d="M24.3,212c-1.8,0-3.4,0.9-4.4,2.3
	c-1-1.4-2.6-2.3-4.4-2.3c-3.1,0-5.5,2.5-5.5,5.7c0,4.4,9.9,12.5,9.9,12.5s9.9-8.1,9.9-12.5C29.8,214.5,27.3,212,24.3,212z"/>
<path fill="#CA6964" d="M24.3,252c-1.8,0-3.4,0.9-4.4,2.3c-1-1.4-2.6-2.3-4.4-2.3c-3.1,0-5.5,2.5-5.5,5.7c0,4.4,9.9,12.5,9.9,12.5
	s9.9-8.1,9.9-12.5C29.8,254.5,27.3,252,24.3,252z"/>
<path fill="#5A6271" d="M25.6,294.4c-1.5-1.5-3.4-2.4-5.6-2.4c-4.4,0-8,3.6-8,8s3.6,8,8,8c3.7,0,6.8-2.5,7.7-6h-2.1
	c-0.8,2.3-3,4-5.6,4c-3.3,0-6-2.7-6-6s2.7-6,6-6c1.7,0,3.1,0.7,4.2,1.8L21,299h7v-7L25.6,294.4z"/>
<path fill="#FFFFFF" d="M67,13v-1.4c0-0.8-0.7-1.6-1.5-1.6h-13c-0.8,0-1.5,0.8-1.5,1.6v5c0,0.8,0.7,1.4,1.5,1.4h13
	c0.8,0,1.5-0.5,1.5-1.4V15h2v5H58v2.1V25h-1v5.6c0,0.8,0.7,1.4,1.5,1.4h1c0.8,0,1.5-0.5,1.5-1.4V25h-1v-3h9l0,0h2v-6.9V13H67z"/>
<g>
	<path fill="#FFFFFF" d="M67.5,55h-11c-0.8,0-1.5,0.7-1.5,1.5v11c0,0.8,0.7,1.5,1.5,1.5h11c0.8,0,1.5-0.7,1.5-1.5v-11
		C69,55.7,68.3,55,67.5,55z"/>
	<path fill="#FFFFFF" d="M65,51H52.5c-0.8,0-1.5,0.7-1.5,1.5V65h2V54.5c0-0.8,0.7-1.5,1.5-1.5H65V51z"/>
</g>
<g>
	<path fill="#FFFFFF" d="M53,107.7c0,1.3,0.9,2.3,2,2.3h10c1.1,0,2-1,2-2.3V97H53V107.7z"/>
	<polygon fill="#FFFFFF" points="63,92 63,90 57,90 57,92 51,92 51,95 69,95 69,92 	"/>
</g>
<g>
	<polygon fill="#FFFFFF" points="54.3,150 65.7,150 60,142.8 	"/>
	<polygon fill="#FFFFFF" points="65.7,130 54.3,130 60,137.2 	"/>
	<rect x="51" y="139" fill="#FFFFFF" width="18" height="2"/>
</g>
<g>
	<polygon fill="#FFFFFF" points="50,185.6 57.2,179.9 50,174.3 	"/>
	<polygon fill="#FFFFFF" points="62.8,179.9 70,185.6 70,174.3 	"/>
	<rect x="59" y="171" fill="#FFFFFF" width="2" height="18"/>
</g>
<path fill="none" stroke="#FFFFFF" stroke-width="2" stroke-miterlimit="10" d="M64.3,212c-1.8,0-3.4,0.9-4.4,2.3
	c-1-1.4-2.6-2.3-4.4-2.3c-3.1,0-5.5,2.5-5.5,5.7c0,4.4,9.9,12.5,9.9,12.5s9.9-8.1,9.9-12.5C69.8,214.5,67.3,212,64.3,212z"/>
<path fill="#FFFFFF" d="M64.3,252c-1.8,0-3.4,0.9-4.4,2.3c-1-1.4-2.6-2.3-4.4-2.3c-3.1,0-5.5,2.5-5.5,5.7c0,4.4,9.9,12.5,9.9,12.5
	s9.9-8.1,9.9-12.5C69.8,254.5,67.3,252,64.3,252z"/>
<path fill="#FFFFFF" d="M65.7,294.4c-1.5-1.5-3.4-2.4-5.7-2.4c-4.4,0-8,3.6-8,8s3.6,8,8,8c3.7,0,6.8-2.5,7.7-6h-2.1
	c-0.8,2.3-3,4-5.7,4c-3.3,0-6-2.7-6-6s2.7-6,6-6c1.7,0,3.1,0.7,4.2,1.8L61,299h7v-7L65.7,294.4z"/>
<path fill="#5A6271" d="M30.1,380.5c-2.2-3.3-6-5.3-10-5.3c-4,0-7.7,2-10,5.3c-0.4,0.6-0.3,1.5,0.4,1.9c0.2,0.2,0.5,0.2,0.8,0.2
	c0.4,0,0.9-0.2,1.1-0.6c0.1-0.1,0.2-0.2,0.3-0.4c1.1,3.1,4,5.3,7.4,5.3c3.5,0,6.4-2.2,7.4-5.3c0.1,0.1,0.2,0.2,0.3,0.4
	c0.4,0.6,1.3,0.8,1.9,0.4C30.4,382,30.6,381.1,30.1,380.5z M20.2,386c-3.2,0-5.9-2.2-6.7-5.2c1-1,2.2-1.8,3.5-2.3
	c-0.4,0.6-0.7,1.4-0.7,2.2c0,2.1,1.7,3.8,3.8,3.8s3.8-1.7,3.8-3.8c0-0.8-0.3-1.6-0.7-2.2c1.3,0.5,2.5,1.3,3.5,2.3
	C26.1,383.8,23.4,386,20.2,386z"/>
<path fill="#5A6271" d="M30.1,420.9c-2.2-3.3-6-5.3-10-5.3c-1.1,0-2.1,0.2-3.1,0.4l-3.4-3.4c-0.4-0.4-1-0.4-1.4,0s-0.4,1,0,1.4
	l2.7,2.7c-1.9,0.9-3.6,2.3-4.8,4.1c-0.4,0.6-0.3,1.5,0.4,1.9c0.2,0.2,0.5,0.2,0.8,0.2c0.4,0,0.9-0.2,1.1-0.6
	c0.1-0.1,0.2-0.2,0.3-0.4c1.1,3.1,4,5.3,7.4,5.3c1.5,0,3-0.5,4.2-1.2l2.1,2.1c0.4,0.4,1,0.4,1.4,0s0.4-1,0-1.4l-1.9-1.9
	c0.8-0.8,1.3-1.8,1.7-2.8c0.1,0.1,0.2,0.2,0.3,0.4c0.4,0.6,1.3,0.8,1.9,0.4C30.4,422.3,30.6,421.5,30.1,420.9z M20.2,426.3
	c-3.2,0-5.9-2.2-6.7-5.2c1-1,2.2-1.8,3.5-2.3c-0.4,0.6-0.7,1.4-0.7,2.2c0,2.1,1.7,3.8,3.8,3.8c0.8,0,1.6-0.3,2.2-0.7l1.2,1.2
	C22.6,426,21.4,426.3,20.2,426.3z M25.2,424.1l-1.5-1.5c0.2-0.5,0.3-1,0.3-1.6c0-0.8-0.3-1.6-0.7-2.2c1.3,0.5,2.5,1.3,3.5,2.3
	C26.6,422.3,26,423.3,25.2,424.1z"/>
<g>
	<rect x="10" y="339" fill="#5A6271" width="5" height="2"/>
	<rect x="25" y="339" fill="#5A6271" width="5" height="2"/>
	<circle fill="#5A6271" cx="20" cy="340" r="3"/>
</g>
<path fill="#FFFFFF" d="M70.1,380.5c-2.2-3.3-6-5.3-10-5.3c-4,0-7.7,2-10,5.3c-0.4,0.6-0.3,1.5,0.4,1.9c0.2,0.2,0.5,0.2,0.8,0.2
	c0.4,0,0.9-0.2,1.1-0.6c0.1-0.1,0.2-0.2,0.3-0.4c1.1,3.1,4,5.3,7.4,5.3c3.5,0,6.4-2.2,7.4-5.3c0.1,0.1,0.2,0.2,0.3,0.4
	c0.4,0.6,1.3,0.8,1.9,0.4C70.4,382,70.6,381.1,70.1,380.5z M60.2,386c-3.2,0-5.9-2.2-6.7-5.2c1-1,2.2-1.8,3.5-2.3
	c-0.4,0.6-0.7,1.4-0.7,2.2c0,2.1,1.7,3.8,3.8,3.8c2.1,0,3.8-1.7,3.8-3.8c0-0.8-0.3-1.6-0.7-2.2c1.3,0.5,2.5,1.3,3.5,2.3
	C66.1,383.8,63.4,386,60.2,386z"/>
<path fill="#FFFFFF" d="M70.1,420.9c-2.2-3.3-6-5.3-10-5.3c-1.1,0-2.1,0.2-3.1,0.4l-3.4-3.4c-0.4-0.4-1-0.4-1.4,0s-0.4,1,0,1.4
	l2.7,2.7c-1.9,0.9-3.6,2.3-4.8,4.1c-0.4,0.6-0.3,1.5,0.4,1.9c0.2,0.2,0.5,0.2,0.8,0.2c0.4,0,0.9-0.2,1.1-0.6
	c0.1-0.1,0.2-0.2,0.3-0.4c1.1,3.1,4,5.3,7.4,5.3c1.5,0,3-0.5,4.2-1.2l2.1,2.1c0.4,0.4,1,0.4,1.4,0s0.4-1,0-1.4l-1.9-1.9
	c0.8-0.8,1.3-1.8,1.7-2.8c0.1,0.1,0.2,0.2,0.3,0.4c0.4,0.6,1.3,0.8,1.9,0.4C70.4,422.3,70.6,421.5,70.1,420.9z M60.2,426.3
	c-3.2,0-5.9-2.2-6.7-5.2c1-1,2.2-1.8,3.5-2.3c-0.4,0.6-0.7,1.4-0.7,2.2c0,2.1,1.7,3.8,3.8,3.8c0.8,0,1.6-0.3,2.2-0.7l1.2,1.2
	C62.6,426,61.4,426.3,60.2,426.3z M65.2,424.1l-1.5-1.5c0.2-0.5,0.3-1,0.3-1.6c0-0.8-0.3-1.6-0.7-2.2c1.3,0.5,2.5,1.3,3.5,2.3
	C66.6,422.3,66,423.3,65.2,424.1z"/>
<g>
	<rect x="50" y="339" fill="#FFFFFF" width="5" height="2"/>
	<rect x="65" y="339" fill="#FFFFFF" width="5" height="2"/>
	<circle fill="#FFFFFF" cx="60" cy="340" r="3"/>
</g>
<path fill="#5A6271" d="M17,469v-14.2l3.6,3.6L22,457l-6-6l-6,6l1.4,1.4l3.6-3.6V469H17z"/>
<path fill="#5A6271" d="M24,451v14.2l-3.6-3.6L19,463l6,6l6-6l-1.4-1.4l-3.6,3.6V451H24z"/>
<path fill="#FFFFFF" d="M57,469v-14.2l3.6,3.6L62,457l-6-6l-6,6l1.4,1.4l3.6-3.6V469H57z"/>
<path fill="#FFFFFF" d="M64,451v14.2l-3.6-3.6L59,463l6,6l6-6l-1.4-1.4l-3.6,3.6V451H64z"/>
<g>
	<path fill="#5A6271" d="M8,490v20h24v-20H8z M30,508H19v-16h11V508z"/>
	<path fill="#5A6271" d="M21,496.9h5.9l-1.5,1.5L26,499l2.5-2.5L26,494l-0.6,0.6l1.5,1.5H21V496.9z"/>
	<path fill="#5A6271" d="M28.5,503.1h-5.9l1.5-1.5l-0.6-0.6l-2.5,2.5l2.5,2.5l0.6-0.6l-1.5-1.5h5.9V503.1z"/>
</g>
<g>
	<path fill="#FFFFFF" d="M48,490v20h24v-20H48z M70,508H59v-16h11V508z"/>
	<path fill="#FFFFFF" d="M61,496.9h5.9l-1.5,1.5L66,499l2.5-2.5L66,494l-0.6,0.6l1.5,1.5H61V496.9z"/>
	<path fill="#FFFFFF" d="M68.5,503.1h-5.9l1.5-1.5l-0.6-0.6l-2.5,2.5l2.5,2.5l0.6-0.6l-1.5-1.5h5.9V503.1z"/>
</g>
<path fill="#5A6271" d="M21,537h-2v-2h2 M21,545h-2v-6h2 M20,530c-5.5,0-10,4.5-10,10s4.5,10,10,10s10-4.5,10-10S25.5,530,20,530z"
	/>
<path fill="#FFFFFF" d="M61,537h-2v-2h2 M61,545h-2v-6h2 M60,530c-5.5,0-10,4.5-10,10s4.5,10,10,10s10-4.5,10-10S65.5,530,60,530z"
	/>
</svg>
