<?xml version="1.0" encoding="utf-8"?>
<!-- Generator: Adobe Illustrator 16.0.0, SVG Export Plug-In . SVG Version: 6.00 Build 0)  -->
<!DOCTYPE svg PUBLIC "-//W3C//DTD SVG 1.1//EN" "http://www.w3.org/Graphics/SVG/1.1/DTD/svg11.dtd">
<svg version="1.1" id="Layer_1" xmlns="http://www.w3.org/2000/svg" xmlns:xlink="http://www.w3.org/1999/xlink" x="0px" y="0px"
	 width="80px" height="560px" viewBox="0 0 80 560" enable-background="new 0 0 80 560" xml:space="preserve">
<g>
	<path fill="#5A6271" d="M13,107.7c0,1.3,0.9,2.3,2,2.3h10c1.1,0,2-1,2-2.3V97H13V107.7z"/>
	<polygon fill="#5A6271" points="23,92 23,90 17,90 17,92 11,92 11,95 29,95 29,92 	"/>
</g>
<path fill="#FFFFFF" d="M67,13v-1.4c0-0.8-0.7-1.6-1.5-1.6h-13c-0.8,0-1.5,0.8-1.5,1.6v5c0,0.8,0.7,1.4,1.5,1.4h13
	c0.8,0,1.5-0.5,1.5-1.4V15h2v5H58v2.1V25h-1v5.6c0,0.8,0.7,1.4,1.5,1.4h1c0.8,0,1.5-0.5,1.5-1.4V25h-1v-3h9l0,0h2v-6.9V13H67z"/>
<g>
	<path fill="#FFFFFF" d="M67.5,55h-11c-0.8,0-1.5,0.7-1.5,1.5v11c0,0.8,0.7,1.5,1.5,1.5h11c0.8,0,1.5-0.7,1.5-1.5v-11
		C69,55.7,68.3,55,67.5,55z"/>
	<path fill="#FFFFFF" d="M65,51H52.5c-0.8,0-1.5,0.7-1.5,1.5V65h2V54.5c0-0.8,0.7-1.5,1.5-1.5H65V51z"/>
</g>
<g>
	<path fill="#FFFFFF" d="M53,107.7c0,1.3,0.9,2.3,2,2.3h10c1.1,0,2-1,2-2.3V97H53V107.7z"/>
	<polygon fill="#FFFFFF" points="63,92 63,90 57,90 57,92 51,92 51,95 69,95 69,92 	"/>
</g>
<g>
	<polygon fill="#FFFFFF" points="54.3,150 65.7,150 60,142.8 	"/>
	<polygon fill="#FFFFFF" points="65.7,130 54.3,130 60,137.2 	"/>
	<rect x="51" y="139" fill="#FFFFFF" width="18" height="2"/>
</g>
<g>
	<polygon fill="#FFFFFF" points="50,185.6 57.2,179.9 50,174.3 	"/>
	<polygon fill="#FFFFFF" points="62.8,179.9 70,185.6 70,174.3 	"/>
	<rect x="59" y="171" fill="#FFFFFF" width="2" height="18"/>
</g>
<path fill="none" stroke="#FFFFFF" stroke-width="2" stroke-miterlimit="10" d="M64.3,212c-1.8,0-3.399,0.9-4.399,2.3
	c-1-1.4-2.601-2.3-4.4-2.3c-3.1,0-5.5,2.5-5.5,5.7c0,4.4,9.9,12.5,9.9,12.5s9.899-8.1,9.899-12.5C69.8,214.5,67.3,212,64.3,212z"/>
<path fill="#FFFFFF" d="M64.3,252c-1.8,0-3.399,0.9-4.399,2.3c-1-1.4-2.601-2.3-4.4-2.3c-3.1,0-5.5,2.5-5.5,5.7
	c0,4.4,9.9,12.5,9.9,12.5s9.899-8.1,9.899-12.5C69.8,254.5,67.3,252,64.3,252z"/>
<path fill="#FFFFFF" d="M65.7,294.4c-1.5-1.5-3.4-2.4-5.7-2.4c-4.4,0-8,3.6-8,8s3.6,8,8,8c3.7,0,6.8-2.5,7.7-6H65.6
	c-0.8,2.3-3,4-5.699,4c-3.301,0-6-2.7-6-6s2.699-6,6-6c1.699,0,3.1,0.7,4.199,1.8L61,299h7v-7L65.7,294.4z"/>
<path fill="#5A6271" d="M30.1,380.5c-2.2-3.3-6-5.3-10-5.3s-7.7,2-10,5.3c-0.4,0.6-0.3,1.5,0.4,1.9c0.2,0.199,0.5,0.199,0.8,0.199
	c0.4,0,0.9-0.199,1.1-0.6c0.1-0.1,0.2-0.2,0.3-0.4c1.1,3.101,4,5.301,7.4,5.301c3.5,0,6.4-2.2,7.4-5.301c0.1,0.101,0.2,0.2,0.3,0.4
	c0.4,0.6,1.3,0.8,1.9,0.4C30.4,382,30.6,381.1,30.1,380.5z M20.2,386c-3.2,0-5.9-2.2-6.7-5.2c1-1,2.2-1.8,3.5-2.3
	c-0.4,0.6-0.7,1.4-0.7,2.2c0,2.1,1.7,3.8,3.8,3.8s3.8-1.7,3.8-3.8c0-0.8-0.3-1.601-0.7-2.2c1.3,0.5,2.5,1.3,3.5,2.3
	C26.1,383.8,23.4,386,20.2,386z"/>
<path fill="#5A6271" d="M30.1,420.9c-2.2-3.301-6-5.301-10-5.301c-1.1,0-2.1,0.2-3.1,0.4l-3.4-3.4c-0.4-0.399-1-0.399-1.4,0
	c-0.4,0.4-0.4,1,0,1.4l2.7,2.7c-1.9,0.899-3.6,2.3-4.8,4.1c-0.4,0.601-0.3,1.5,0.4,1.9c0.2,0.2,0.5,0.2,0.8,0.2
	c0.4,0,0.9-0.2,1.1-0.601c0.1-0.1,0.2-0.2,0.3-0.399c1.1,3.1,4,5.3,7.4,5.3c1.5,0,3-0.5,4.2-1.2l2.1,2.1c0.4,0.4,1,0.4,1.4,0
	c0.4-0.399,0.4-1,0-1.399l-1.9-1.9c0.8-0.8,1.3-1.8,1.7-2.8c0.1,0.1,0.2,0.2,0.3,0.4c0.4,0.6,1.3,0.8,1.9,0.399
	C30.4,422.3,30.6,421.5,30.1,420.9z M20.2,426.3c-3.2,0-5.9-2.2-6.7-5.2c1-1,2.2-1.8,3.5-2.3c-0.4,0.601-0.7,1.4-0.7,2.2
	c0,2.1,1.7,3.8,3.8,3.8c0.8,0,1.6-0.3,2.2-0.7l1.2,1.2C22.6,426,21.4,426.3,20.2,426.3z M25.2,424.1l-1.5-1.5c0.2-0.5,0.3-1,0.3-1.6
	c0-0.8-0.3-1.6-0.7-2.2c1.3,0.5,2.5,1.3,3.5,2.3C26.6,422.3,26,423.3,25.2,424.1z"/>
<path fill="#FFFFFF" d="M70.1,380.5c-2.199-3.3-6-5.3-10-5.3s-7.699,2-10,5.3c-0.399,0.6-0.3,1.5,0.4,1.9
	c0.2,0.199,0.5,0.199,0.8,0.199c0.4,0,0.9-0.199,1.101-0.6c0.1-0.1,0.199-0.2,0.3-0.4c1.1,3.101,4,5.301,7.399,5.301
	c3.5,0,6.4-2.2,7.4-5.301c0.1,0.101,0.2,0.2,0.3,0.4c0.4,0.6,1.3,0.8,1.9,0.4C70.4,382,70.6,381.1,70.1,380.5z M60.2,386
	c-3.2,0-5.9-2.2-6.7-5.2c1-1,2.2-1.8,3.5-2.3c-0.4,0.6-0.7,1.4-0.7,2.2c0,2.1,1.7,3.8,3.8,3.8c2.101,0,3.801-1.7,3.801-3.8
	c0-0.8-0.301-1.601-0.7-2.2c1.3,0.5,2.5,1.3,3.5,2.3C66.1,383.8,63.4,386,60.2,386z"/>
<path fill="#FFFFFF" d="M70.1,420.9c-2.199-3.301-6-5.301-10-5.301c-1.1,0-2.1,0.2-3.1,0.4l-3.4-3.4c-0.399-0.399-1-0.399-1.399,0
	c-0.4,0.4-0.4,1,0,1.4l2.7,2.7C53,417.6,51.3,419,50.1,420.8c-0.399,0.601-0.3,1.5,0.4,1.9c0.2,0.2,0.5,0.2,0.8,0.2
	c0.4,0,0.9-0.2,1.101-0.601c0.1-0.1,0.199-0.2,0.3-0.399c1.1,3.1,4,5.3,7.399,5.3c1.5,0,3-0.5,4.2-1.2l2.101,2.1
	c0.399,0.4,1,0.4,1.399,0c0.4-0.399,0.4-1,0-1.399l-1.899-1.9c0.8-0.8,1.3-1.8,1.699-2.8c0.101,0.1,0.2,0.2,0.301,0.4
	c0.399,0.6,1.3,0.8,1.899,0.399C70.4,422.3,70.6,421.5,70.1,420.9z M60.2,426.3c-3.2,0-5.9-2.2-6.7-5.2c1-1,2.2-1.8,3.5-2.3
	c-0.4,0.601-0.7,1.4-0.7,2.2c0,2.1,1.7,3.8,3.8,3.8c0.801,0,1.601-0.3,2.2-0.7l1.2,1.2C62.6,426,61.4,426.3,60.2,426.3z M65.2,424.1
	l-1.5-1.5c0.2-0.5,0.3-1,0.3-1.6c0-0.8-0.3-1.6-0.7-2.2c1.3,0.5,2.5,1.3,3.5,2.3C66.6,422.3,66,423.3,65.2,424.1z"/>
<g>
	<rect x="50" y="339" fill="#FFFFFF" width="5" height="2"/>
	<rect x="65" y="339" fill="#FFFFFF" width="5" height="2"/>
	<circle fill="#FFFFFF" cx="60" cy="340" r="3"/>
</g>
<path fill="#5A6271" d="M17,469v-14.2l3.6,3.601L22,457l-6-6l-6,6l1.4,1.4L15,454.8V469H17z"/>
<path fill="#5A6271" d="M24,451v14.2l-3.6-3.601L19,463l6,6l6-6l-1.4-1.4L26,465.2V451H24z"/>
<path fill="#FFFFFF" d="M57,469v-14.2l3.6,3.601L62,457l-6-6l-6,6l1.4,1.4L55,454.8V469H57z"/>
<path fill="#FFFFFF" d="M64,451v14.2l-3.6-3.601L59,463l6,6l6-6l-1.4-1.4L66,465.2V451H64z"/>
<g>
	<path fill="#5A6271" d="M8,490v20h24v-20H8z M30,508H19v-16h11V508z"/>
	<path fill="#5A6271" d="M21,496.9h5.9l-1.5,1.5L26,499l2.5-2.5L26,494l-0.6,0.6l1.5,1.5H21V496.9z"/>
	<path fill="#5A6271" d="M28.5,503.1h-5.9l1.5-1.5l-0.6-0.6l-2.5,2.5l2.5,2.5l0.6-0.6l-1.5-1.5h5.9V503.1z"/>
</g>
<g>
	<path fill="#FFFFFF" d="M48,490v20h24v-20H48z M70,508H59v-16h11V508z"/>
	<path fill="#FFFFFF" d="M61,496.9h5.9l-1.5,1.5L66,499l2.5-2.5L66,494l-0.6,0.6l1.5,1.5H61V496.9z"/>
	<path fill="#FFFFFF" d="M68.5,503.1h-5.9l1.5-1.5l-0.6-0.6l-2.5,2.5l2.5,2.5l0.6-0.6l-1.5-1.5h5.9V503.1z"/>
</g>
<path fill="#5A6271" d="M21,537h-2v-2h2 M21,545h-2v-6h2 M20,530c-5.5,0-10,4.5-10,10s4.5,10,10,10s10-4.5,10-10S25.5,530,20,530z"
	/>
<path fill="#FFFFFF" d="M61,537h-2v-2h2 M61,545h-2v-6h2 M60,530c-5.5,0-10,4.5-10,10s4.5,10,10,10s10-4.5,10-10S65.5,530,60,530z"
	/>
<g>
	<g>
		<g>
			<line fill="none" stroke="#5A6271" stroke-miterlimit="10" x1="16.126" y1="16.282" x2="16.126" y2="16.002"/>
			<g>
				<polygon fill="#5A6271" points="17.338,16.376 16.126,14.23 14.82,16.376 				"/>
			</g>
		</g>
	</g>
	<g>
		<g>
			<line fill="none" stroke="#5A6271" stroke-miterlimit="10" x1="25.919" y1="25.888" x2="26.198" y2="25.888"/>
			<g>
				<polygon fill="#5A6271" points="25.919,27.101 28.063,25.888 25.919,24.583 				"/>
			</g>
		</g>
	</g>
	<g>
		<g>
			<g>
				<polyline fill="none" stroke="#5A6271" stroke-width="2" stroke-miterlimit="10" points="29.743,30.272 29.743,31.67 
					28.343,31.67 				"/>
				
					<line fill="none" stroke="#5A6271" stroke-width="2" stroke-miterlimit="10" stroke-dasharray="3.0441,1.0147" x1="27.41" y1="31.67" x2="12.862" y2="31.67"/>
				<polyline fill="none" stroke="#5A6271" stroke-width="2" stroke-miterlimit="10" points="12.209,31.67 10.81,31.67 
					10.81,30.272 				"/>
				
					<line fill="none" stroke="#5A6271" stroke-width="2" stroke-miterlimit="10" stroke-dasharray="3.0662,1.0221" x1="10.81" y1="29.339" x2="10.81" y2="14.51"/>
				<polyline fill="none" stroke="#5A6271" stroke-width="2" stroke-miterlimit="10" points="10.81,14.043 10.81,12.645 
					12.209,12.645 				"/>
				
					<line fill="none" stroke="#5A6271" stroke-width="2" stroke-miterlimit="10" stroke-dasharray="3.0441,1.0147" x1="13.328" y1="12.645" x2="27.877" y2="12.645"/>
				<polyline fill="none" stroke="#5A6271" stroke-width="2" stroke-miterlimit="10" points="28.343,12.645 29.743,12.645 
					29.743,14.043 				"/>
				
					<line fill="none" stroke="#5A6271" stroke-width="2" stroke-miterlimit="10" stroke-dasharray="3.0662,1.0221" x1="29.743" y1="14.976" x2="29.743" y2="29.805"/>
			</g>
		</g>
		
			<rect x="10.81" y="21.412" fill="none" stroke="#5A6271" stroke-width="2" stroke-miterlimit="10" width="10.539" height="10.259"/>
		<line fill="none" stroke="#5A6271" stroke-width="2" stroke-miterlimit="10" x1="16.126" y1="16.002" x2="16.126" y2="19.546"/>
		<line fill="none" stroke="#5A6271" stroke-width="2" stroke-miterlimit="10" x1="26.198" y1="25.888" x2="22.654" y2="25.888"/>
	</g>
</g>
<g>
	<rect x="9.155" y="59.692" fill="#5A6271" width="7.721" height="4.935"/>
	<rect x="22.924" y="59.692" fill="#5A6271" width="7.72" height="4.935"/>
	<line fill="none" stroke="#5A6271" stroke-width="0.5" stroke-miterlimit="10" x1="16.955" y1="62.318" x2="22.924" y2="62.318"/>
	<line fill="none" stroke="#5A6271" stroke-width="0.5" stroke-miterlimit="10" x1="16.955" y1="64.229" x2="22.924" y2="64.229"/>
	<line fill="none" stroke="#5A6271" stroke-width="0.5" stroke-miterlimit="10" x1="16.955" y1="60.01" x2="22.924" y2="60.01"/>
</g>
<g>
	<line fill="none" stroke="#5A6271" stroke-width="2" stroke-miterlimit="10" x1="14.857" y1="132.793" x2="14.857" y2="146.947"/>
	<path fill="none" stroke="#5A6271" stroke-width="0.5" stroke-miterlimit="10" d="M15.481,146.502
		c-0.535,0.445,10.059-3.561,9.791-13.174"/>
	
		<line fill="none" stroke="#5A6271" stroke-width="0.5" stroke-miterlimit="10" x1="15.214" y1="134.663" x2="25.272" y2="134.663"/>
	<line fill="none" stroke="#5A6271" stroke-width="2" stroke-miterlimit="10" x1="32.572" y1="132.615" x2="9.428" y2="132.615"/>
</g>
<g>
	<rect x="28.892" y="172.688" fill="#5A6271" width="5.653" height="2.462"/>
	<g>
		<rect x="5.727" y="172.779" fill="#5A6271" width="5.655" height="2.462"/>
		<line fill="none" stroke="#5A6271" stroke-width="2" stroke-miterlimit="10" x1="10.834" y1="174.785" x2="10.834" y2="186.549"/>
		<path fill="none" stroke="#5A6271" stroke-width="0.5" stroke-miterlimit="10" d="M11.382,186.093
			c-0.456,0.365,8.298-3.01,8.116-10.943"/>
		
			<line fill="none" stroke="#5A6271" stroke-width="0.5" stroke-miterlimit="10" x1="11.108" y1="173.143" x2="21.596" y2="173.143"/>
		<line fill="none" stroke="#5A6271" stroke-width="2" stroke-miterlimit="10" x1="28.892" y1="174.694" x2="9.922" y2="174.694"/>
	</g>
	<line fill="none" stroke="#5A6271" stroke-width="2" stroke-miterlimit="10" x1="29.438" y1="174.785" x2="29.438" y2="186.549"/>
	
		<line fill="none" stroke="#5A6271" stroke-width="0.5" stroke-miterlimit="10" x1="29.165" y1="173.143" x2="18.678" y2="173.143"/>
	<path fill="none" stroke="#5A6271" stroke-width="0.5" stroke-miterlimit="10" d="M19.498,176.426
		c-0.274-0.547,1.642,8.664,9.484,9.667"/>
</g>
<rect x="7.819" y="218.042" fill="none" stroke="#5A6271" stroke-width="2" stroke-miterlimit="10" width="24.849" height="6.117"/>
<g>
	<line fill="none" stroke="#5A6271" stroke-width="2" stroke-miterlimit="10" x1="25.373" y1="265.659" x2="25.373" y2="251.909"/>
	<path fill="none" stroke="#5A6271" stroke-width="0.5" stroke-miterlimit="10" d="M24.734,252.455
		c0.546-0.364-9.743,3.461-9.47,12.658"/>
	<line fill="none" stroke="#5A6271" stroke-width="2" stroke-miterlimit="10" x1="8.252" y1="265.841" x2="30.562" y2="265.841"/>
</g>
<g>
	<rect x="5.252" y="342.499" fill="#5A6271" width="29.982" height="2.249"/>
	<rect x="5.252" y="337.253" fill="#5A6271" width="29.982" height="0.856"/>
	<rect x="5.252" y="339.93" fill="#5A6271" width="29.982" height="1.178"/>
</g>
<g>
	<line fill="none" stroke="#5A6271" stroke-width="2" stroke-miterlimit="10" x1="7.194" y1="296.814" x2="30.805" y2="296.814"/>
	<line fill="none" stroke="#5A6271" stroke-width="2" stroke-miterlimit="10" x1="30.805" y1="295.844" x2="30.805" y2="305.87"/>
	<line fill="none" stroke="#5A6271" stroke-width="2" stroke-miterlimit="10" x1="7.922" y1="295.844" x2="7.922" y2="305.87"/>
	<g>
		<g>
			
				<line fill="none" stroke="#5A6271" stroke-width="0.75" stroke-miterlimit="10" x1="12.127" y1="301.262" x2="12.935" y2="301.262"/>
			
				<line fill="none" stroke="#5A6271" stroke-width="0.75" stroke-miterlimit="10" stroke-dasharray="1.8754,0.9377" x1="13.744" y1="301.262" x2="24.741" y2="301.262"/>
			
				<line fill="none" stroke="#5A6271" stroke-width="0.75" stroke-miterlimit="10" x1="25.064" y1="301.262" x2="25.873" y2="301.262"/>
		</g>
	</g>
	<line fill="none" stroke="#5A6271" stroke-width="2" stroke-miterlimit="10" x1="7.922" y1="304.9" x2="14.067" y2="304.9"/>
	<line fill="none" stroke="#5A6271" stroke-width="2" stroke-miterlimit="10" x1="24.175" y1="304.9" x2="30.321" y2="304.9"/>
	<line fill="none" stroke="#5A6271" stroke-width="2" stroke-miterlimit="10" x1="13.097" y1="300.856" x2="13.097" y2="304.172"/>
	<line fill="none" stroke="#5A6271" stroke-width="2" stroke-miterlimit="10" x1="25.145" y1="300.856" x2="25.145" y2="304.657"/>
</g>
</svg>
